<svg id="visual" viewBox="0 0 1920 780" width="1920" height="780" xmlns="http://www.w3.org/2000/svg" xmlns:xlink="http://www.w3.org/1999/xlink" version="1.1"><rect x="0" y="0" width="1920" height="780" fill="#ffffff"></rect><defs><linearGradient id="grad1_0" x1="59.4%" y1="0%" x2="100%" y2="100%"><stop offset="0.7692307692307665%" stop-color="#ffffff" stop-opacity="1"></stop><stop offset="99.23076923076923%" stop-color="#ffffff" stop-opacity="1"></stop></linearGradient></defs><defs><linearGradient id="grad2_0" x1="0%" y1="0%" x2="40.6%" y2="100%"><stop offset="0.7692307692307665%" stop-color="#ffffff" stop-opacity="1"></stop><stop offset="99.23076923076923%" stop-color="#ffffff" stop-opacity="1"></stop></linearGradient></defs><g transform="translate(1920, 0)"><path d="M0 390C-39.4 330.5 -78.7 271 -142 246C-205.3 220.9 -292.4 230.3 -337.7 195C-383.1 159.7 -386.5 79.9 -390 0L0 0Z" fill="#FBAE3C"></path></g><g transform="translate(0, 780)"><path d="M0 -390C69.1 -380.3 138.3 -370.7 195 -337.7C251.7 -304.8 296.1 -248.7 326.5 -188.5C356.9 -128.3 373.5 -64.2 390 0L0 0Z" fill="#FBAE3C"></path></g></svg>