<svg id="visual" viewBox="0 0 900 600" width="900" height="600" xmlns="http://www.w3.org/2000/svg" xmlns:xlink="http://www.w3.org/1999/xlink" version="1.1"><rect x="0" y="0" width="900" height="600" fill="#002233"></rect><path d="M221 0L202.5 25C184 50 147 100 131.7 150C116.3 200 122.7 250 133.7 300C144.7 350 160.3 400 169.2 450C178 500 180 550 181 575L182 600L0 600L0 575C0 550 0 500 0 450C0 400 0 350 0 300C0 250 0 200 0 150C0 100 0 50 0 25L0 0Z" fill="#0066FF" stroke-linecap="round" stroke-linejoin="miter"></path></svg>